<?xml version="1.0" encoding="utf-8"?>
<!-- Svg Vector Icons : http://www.onlinewebfonts.com/icon -->
<!DOCTYPE svg PUBLIC "-//W3C//DTD SVG 1.1//EN" "http://www.w3.org/Graphics/SVG/1.1/DTD/svg11.dtd">
<svg version="1.1" xmlns="http://www.w3.org/2000/svg" xmlns:xlink="http://www.w3.org/1999/xlink" x="0px" y="0px" viewBox="0 0 256 256" enable-background="new 0 0 256 256" xml:space="preserve">
<metadata> Svg Vector Icons : http://www.onlinewebfonts.com/icon </metadata>
<g><g><g><path fill="#000000" d="M116.7,10.3C88.9,13.1,64,24.9,44.4,44.5c-18.8,18.8-29.9,41.5-33.9,69c-0.9,6.3-0.7,24.1,0.3,30.7c2,13.4,5.5,24.5,11.2,36c6.2,12.5,13.1,22,22.9,31.7c9.7,9.7,18.7,16,31.1,22.1c11.7,5.7,21.3,8.8,34.5,10.9c7.4,1.2,25.1,1.4,32,0.5c22.7-3.3,42.9-11.9,59.6-25.4c23.8-19.2,38.8-46.1,43.3-77.5c0.8-5.5,0.8-23.6,0-29.1c-3.2-22.6-11.5-42.4-24.9-59.1c-6.8-8.5-17.4-18.3-26.1-24.2c-15-10.1-31.3-16.4-49.8-19.3C138.8,10,122.6,9.6,116.7,10.3z M119.5,70l1.2,1.1v23.6v23.6l-1.2,1.1l-1.1,1.2H94.7H71.1l-1.1-1.2l-1.2-1.1V94.8V71.2l1.2-1.1l1.1-1.2h23.6h23.6L119.5,70z M186,70l1.2,1.1v23.6v23.6l-1.2,1.1l-1.1,1.2h-23.6h-23.6l-1.1-1.2l-1.2-1.1V94.8V71.2l1.2-1.1l1.1-1.2h23.6h23.6L186,70z M119.5,136.6l1.2,1.1v23.6v23.6l-1.2,1.1l-1.1,1.2H94.7H71.1L70,186l-1.2-1.1v-23.6v-23.6l1.2-1.1l1.1-1.2h23.6h23.6L119.5,136.6z M186,136.6l1.2,1.1v23.6v23.6L186,186l-1.1,1.2h-23.6h-23.6l-1.1-1.2l-1.2-1.1v-23.6v-23.6l1.2-1.1l1.1-1.2h23.6h23.6L186,136.6z"/><path fill="#000000" d="M76.3,94.8v18.5h18.5h18.5V94.8V76.3H94.7H76.3V94.8z"/><path fill="#000000" d="M142.8,94.8v18.5h18.5h18.5V94.8V76.3h-18.5h-18.5V94.8L142.8,94.8z"/><path fill="#000000" d="M76.3,161.3v18.5h18.5h18.5v-18.5v-18.5H94.7H76.3V161.3z"/><path fill="#000000" d="M142.8,161.3v18.5h18.5h18.5v-18.5v-18.5h-18.5h-18.5V161.3L142.8,161.3z"/></g></g></g>
</svg>